<?xml version="1.0" encoding="UTF-8" standalone="no"?><svg xmlns="http://www.w3.org/2000/svg" xmlns:xlink="http://www.w3.org/1999/xlink" contentScriptType="application/ecmascript" contentStyleType="text/css" height="337px" preserveAspectRatio="none" style="width:511px;height:337px;" version="1.1" viewBox="0 0 511 337"
    width="511px" zoomAndPan="magnify"><defs><filter height="300%" id="fvsvlvg" width="300%" x="-1" y="-1"><feGaussianBlur result="blurOut" stdDeviation="2.0"/><feColorMatrix in="blurOut" result="blurOut2" type="matrix" values="0 0 0 0 0 0 0 0 0 0 0 0 0 0 0 0 0 0 .4 0"/><feOffset dx="4.0" dy="4.0" in="blurOut2" result="blurOut3"/><feBlend in="SourceGraphic" in2="blurOut3" mode="normal"/></filter></defs><g><text fill="#000000" font-family="sans-serif" font-size="18" lengthAdjust="spacingAndGlyphs" textLength="157" x="182" y="17.4023">Command Pattern</text><!--class MoveUnitCommand--><rect fill="#FEFECE" filter="url(#fvsvlvg)" height="138.6855" style="stroke: #A80036; stroke-width: 1.5;" width="297" x="6" y="29.1992"/><ellipse cx="94.75" cy="45.1992" fill="#ADD1B2" rx="11" ry="11" style="stroke: #A80036; stroke-width: 1.0;"/><path d="M97.7231,50.8423 Q97.1421,51.1411 96.5029,51.2905 Q95.8638,51.4399 95.1582,51.4399 Q92.6514,51.4399 91.3315,49.7881 Q90.0117,48.1362 90.0117,45.0151 Q90.0117,41.8857 91.3315,40.2339 Q92.6514,38.582 95.1582,38.582 Q95.8638,38.582 96.5112,38.7314 Q97.1587,38.8809 97.7231,39.1797 L97.7231,41.9023 Q97.0923,41.3213 96.4988,41.0515 Q95.9053,40.7817 95.2744,40.7817 Q93.9297,40.7817 93.2449,41.8484 Q92.5601,42.915 92.5601,45.0151 Q92.5601,47.1069 93.2449,48.1736 Q93.9297,49.2402 95.2744,49.2402 Q95.9053,49.2402 96.4988,48.9705 Q97.0923,48.7007 97.7231,48.1196 Z "/><text fill="#000000" font-family="sans-serif" font-size="12" lengthAdjust="spacingAndGlyphs" textLength="111" x="115.25" y="49.7344">MoveUnitCommand</text><line style="stroke: #A80036; stroke-width: 1.5;" x1="7" x2="302" y1="61.1992" y2="61.1992"/><rect fill="none" height="6" style="stroke: #C82930; stroke-width: 1.0;" width="6" x="14" y="70.1768"/><text fill="#000000" font-family="sans-serif" font-size="11" lengthAdjust="spacingAndGlyphs" textLength="54" x="26" y="75.834">Unit* unit;</text><rect fill="none" height="6" style="stroke: #C82930; stroke-width: 1.0;" width="6" x="14" y="83.1318"/><text fill="#000000" font-family="sans-serif" font-size="11" lengthAdjust="spacingAndGlyphs" textLength="101" x="26" y="88.7891">Vector2f* position;</text><rect fill="none" height="6" style="stroke: #C82930; stroke-width: 1.0;" width="6" x="14" y="96.0869"/><text fill="#000000" font-family="sans-serif" font-size="11" lengthAdjust="spacingAndGlyphs" textLength="135" x="26" y="101.7441">Vector2f* positionBefore;</text><line style="stroke: #A80036; stroke-width: 1.5;" x1="7" x2="302" y1="108.0645" y2="108.0645"/><ellipse cx="17" cy="120.042" fill="#84BE84" rx="3" ry="3" style="stroke: #038048; stroke-width: 1.0;"/><text fill="#000000" font-family="sans-serif" font-size="11" lengthAdjust="spacingAndGlyphs" textLength="271" x="26" y="122.6992">MoveUnitCommand(Unit* unit, Vector2f* position);</text><ellipse cx="17" cy="132.9971" fill="#84BE84" rx="3" ry="3" style="stroke: #038048; stroke-width: 1.0;"/><text fill="#000000" font-family="sans-serif" font-size="11" lengthAdjust="spacingAndGlyphs" textLength="160" x="26" y="135.6543">virtual ~MoveUnitCommand();</text><ellipse cx="17" cy="145.9521" fill="#84BE84" rx="3" ry="3" style="stroke: #038048; stroke-width: 1.0;"/><text fill="#000000" font-family="sans-serif" font-size="11" lengthAdjust="spacingAndGlyphs" textLength="116" x="26" y="148.6094">virtual void execute();</text><ellipse cx="17" cy="158.9072" fill="#84BE84" rx="3" ry="3" style="stroke: #038048; stroke-width: 1.0;"/><text fill="#000000" font-family="sans-serif" font-size="11" lengthAdjust="spacingAndGlyphs" textLength="102" x="26" y="161.5645">virtual void undo();</text><!--class Command--><rect fill="#FEFECE" filter="url(#fvsvlvg)" height="99.8203" style="stroke: #A80036; stroke-width: 1.5;" width="142" x="83.5" y="228.1992"/><ellipse cx="121.45" cy="244.1992" fill="#ADD1B2" rx="11" ry="11" style="stroke: #A80036; stroke-width: 1.0;"/><path d="M124.4231,249.8423 Q123.8421,250.1411 123.2029,250.2905 Q122.5638,250.4399 121.8582,250.4399 Q119.3514,250.4399 118.0315,248.7881 Q116.7117,247.1362 116.7117,244.0151 Q116.7117,240.8857 118.0315,239.2339 Q119.3514,237.582 121.8582,237.582 Q122.5638,237.582 123.2112,237.7314 Q123.8587,237.8809 124.4231,238.1797 L124.4231,240.9023 Q123.7923,240.3213 123.1988,240.0515 Q122.6053,239.7817 121.9744,239.7817 Q120.6297,239.7817 119.9449,240.8484 Q119.2601,241.915 119.2601,244.0151 Q119.2601,246.1069 119.9449,247.1736 Q120.6297,248.2402 121.9744,248.2402 Q122.6053,248.2402 123.1988,247.9705 Q123.7923,247.7007 124.4231,247.1196 Z "/><text fill="#000000" font-family="sans-serif" font-size="12" lengthAdjust="spacingAndGlyphs" textLength="59" x="140.55" y="248.7344">Command</text><line style="stroke: #A80036; stroke-width: 1.5;" x1="84.5" x2="224.5" y1="260.1992" y2="260.1992"/><line style="stroke: #A80036; stroke-width: 1.5;" x1="84.5" x2="224.5" y1="268.1992" y2="268.1992"/><ellipse cx="94.5" cy="280.1768" fill="#84BE84" rx="3" ry="3" style="stroke: #038048; stroke-width: 1.0;"/><text fill="#000000" font-family="sans-serif" font-size="11" lengthAdjust="spacingAndGlyphs" textLength="66" x="103.5" y="282.834">Command();</text><ellipse cx="94.5" cy="293.1318" fill="#84BE84" rx="3" ry="3" style="stroke: #038048; stroke-width: 1.0;"/><text fill="#000000" font-family="sans-serif" font-size="11" lengthAdjust="spacingAndGlyphs" textLength="110" x="103.5" y="295.7891">virtual ~Command();</text><ellipse cx="94.5" cy="306.0869" fill="#84BE84" rx="3" ry="3" style="stroke: #038048; stroke-width: 1.0;"/><text fill="#000000" font-family="sans-serif" font-size="11" lengthAdjust="spacingAndGlyphs" textLength="116" x="103.5" y="308.7441">virtual void execute();</text><ellipse cx="94.5" cy="319.042" fill="#84BE84" rx="3" ry="3" style="stroke: #038048; stroke-width: 1.0;"/><text fill="#000000" font-family="sans-serif" font-size="11" lengthAdjust="spacingAndGlyphs" textLength="102" x="103.5" y="321.6992">virtual void undo();</text><!--class InputHandler--><rect fill="#FEFECE" filter="url(#fvsvlvg)" height="138.6855" style="stroke: #A80036; stroke-width: 1.5;" width="164" x="338.5" y="29.1992"/><ellipse cx="379.15" cy="45.1992" fill="#ADD1B2" rx="11" ry="11" style="stroke: #A80036; stroke-width: 1.0;"/><path d="M382.1231,50.8423 Q381.5421,51.1411 380.9029,51.2905 Q380.2638,51.4399 379.5582,51.4399 Q377.0514,51.4399 375.7315,49.7881 Q374.4117,48.1362 374.4117,45.0151 Q374.4117,41.8857 375.7315,40.2339 Q377.0514,38.582 379.5582,38.582 Q380.2638,38.582 380.9112,38.7314 Q381.5587,38.8809 382.1231,39.1797 L382.1231,41.9023 Q381.4923,41.3213 380.8988,41.0515 Q380.3053,40.7817 379.6744,40.7817 Q378.3297,40.7817 377.6449,41.8484 Q376.9601,42.915 376.9601,45.0151 Q376.9601,47.1069 377.6449,48.1736 Q378.3297,49.2402 379.6744,49.2402 Q380.3053,49.2402 380.8988,48.9705 Q381.4923,48.7007 382.1231,48.1196 Z "/><text fill="#000000" font-family="sans-serif" font-size="12" lengthAdjust="spacingAndGlyphs" textLength="75" x="398.85" y="49.7344">InputHandler</text><line style="stroke: #A80036; stroke-width: 1.5;" x1="339.5" x2="501.5" y1="61.1992" y2="61.1992"/><rect fill="none" height="6" style="stroke: #C82930; stroke-width: 1.0;" width="6" x="346.5" y="70.1768"/><text fill="#000000" font-family="sans-serif" font-size="11" lengthAdjust="spacingAndGlyphs" textLength="115" x="358.5" y="75.834">Command *buttonX_;</text><rect fill="none" height="6" style="stroke: #C82930; stroke-width: 1.0;" width="6" x="346.5" y="83.1318"/><text fill="#000000" font-family="sans-serif" font-size="11" lengthAdjust="spacingAndGlyphs" textLength="115" x="358.5" y="88.7891">Command *buttonY_;</text><rect fill="none" height="6" style="stroke: #C82930; stroke-width: 1.0;" width="6" x="346.5" y="96.0869"/><text fill="#000000" font-family="sans-serif" font-size="11" lengthAdjust="spacingAndGlyphs" textLength="116" x="358.5" y="101.7441">Command *buttonA_;</text><rect fill="none" height="6" style="stroke: #C82930; stroke-width: 1.0;" width="6" x="346.5" y="109.042"/><text fill="#000000" font-family="sans-serif" font-size="11" lengthAdjust="spacingAndGlyphs" textLength="114" x="358.5" y="114.6992">Command *buttonB_;</text><line style="stroke: #A80036; stroke-width: 1.5;" x1="339.5" x2="501.5" y1="121.0195" y2="121.0195"/><ellipse cx="349.5" cy="132.9971" fill="#84BE84" rx="3" ry="3" style="stroke: #038048; stroke-width: 1.0;"/><text fill="#000000" font-family="sans-serif" font-size="11" lengthAdjust="spacingAndGlyphs" textLength="84" x="358.5" y="135.6543">InputHandler ();</text><ellipse cx="349.5" cy="145.9521" fill="#84BE84" rx="3" ry="3" style="stroke: #038048; stroke-width: 1.0;"/><text fill="#000000" font-family="sans-serif" font-size="11" lengthAdjust="spacingAndGlyphs" textLength="128" x="358.5" y="148.6094">virtual ~InputHandler ();</text><ellipse cx="349.5" cy="158.9072" fill="#84BE84" rx="3" ry="3" style="stroke: #038048; stroke-width: 1.0;"/><text fill="#000000" font-family="sans-serif" font-size="11" lengthAdjust="spacingAndGlyphs" textLength="138" x="358.5" y="161.5645">Command* handleInput();</text><path d="M154.5,188.7292 C154.5,202.2542 154.5,215.7708 154.5,228.0502 " fill="none" style="stroke: #A80036; stroke-width: 1.0;"/><polygon fill="none" points="147.5001,188.3555,154.5,168.3555,161.5001,188.3555,147.5001,188.3555" style="stroke: #A80036; stroke-width: 1.0;"/></g></svg>